<mxfile host="app.diagrams.net" modified="2023-08-12T16:08:13.661Z" agent="Mozilla/5.0 (Macintosh; Intel Mac OS X 10_15_7) AppleWebKit/605.1.15 (KHTML, like Gecko) Version/16.6 Safari/605.1.15" etag="mBFdC9Kb7k8Nzc8wMra2" version="21.6.7" type="device">
  <diagram id="R2lEEEUBdFMjLlhIrx00" name="Page-1">
    <mxGraphModel dx="1434" dy="802" grid="1" gridSize="10" guides="1" tooltips="1" connect="1" arrows="1" fold="1" page="1" pageScale="1" pageWidth="3000" pageHeight="3000" background="#ffffff" math="0" shadow="0" extFonts="Permanent Marker^https://fonts.googleapis.com/css?family=Permanent+Marker">
      <root>
        <mxCell id="0" />
        <mxCell id="1" parent="0" />
        <mxCell id="4MOQ0DoctpOwkA63N22g-1" value="Infections" style="rounded=0;whiteSpace=wrap;html=1;" parent="1" vertex="1">
          <mxGeometry x="660" y="230" width="110" height="40" as="geometry" />
        </mxCell>
        <mxCell id="4MOQ0DoctpOwkA63N22g-157" style="edgeStyle=orthogonalEdgeStyle;rounded=0;orthogonalLoop=1;jettySize=auto;html=1;entryX=1;entryY=0.5;entryDx=0;entryDy=0;endArrow=none;endFill=0;startArrow=classic;startFill=1;" parent="1" source="4MOQ0DoctpOwkA63N22g-2" target="4MOQ0DoctpOwkA63N22g-156" edge="1">
          <mxGeometry relative="1" as="geometry">
            <Array as="points">
              <mxPoint x="940" y="400" />
            </Array>
          </mxGeometry>
        </mxCell>
        <mxCell id="4MOQ0DoctpOwkA63N22g-186" style="edgeStyle=orthogonalEdgeStyle;rounded=0;orthogonalLoop=1;jettySize=auto;html=1;exitX=1;exitY=0.5;exitDx=0;exitDy=0;entryX=0.5;entryY=0;entryDx=0;entryDy=0;endArrow=none;endFill=0;startArrow=classic;startFill=1;" parent="1" source="4MOQ0DoctpOwkA63N22g-2" target="4MOQ0DoctpOwkA63N22g-145" edge="1">
          <mxGeometry relative="1" as="geometry">
            <Array as="points">
              <mxPoint x="1340" y="540" />
              <mxPoint x="1340" y="750" />
              <mxPoint x="960" y="750" />
            </Array>
          </mxGeometry>
        </mxCell>
        <mxCell id="4MOQ0DoctpOwkA63N22g-187" style="edgeStyle=orthogonalEdgeStyle;rounded=0;orthogonalLoop=1;jettySize=auto;html=1;entryX=0;entryY=0.5;entryDx=0;entryDy=0;endArrow=none;endFill=0;startArrow=classic;startFill=1;" parent="1" source="4MOQ0DoctpOwkA63N22g-2" target="4MOQ0DoctpOwkA63N22g-112" edge="1">
          <mxGeometry relative="1" as="geometry">
            <Array as="points">
              <mxPoint x="580" y="540" />
              <mxPoint x="580" y="1080" />
            </Array>
          </mxGeometry>
        </mxCell>
        <mxCell id="4MOQ0DoctpOwkA63N22g-2" value="Person" style="rounded=0;whiteSpace=wrap;html=1;" parent="1" vertex="1">
          <mxGeometry x="885" y="520" width="115" height="40" as="geometry" />
        </mxCell>
        <mxCell id="4MOQ0DoctpOwkA63N22g-19" value="" style="edgeStyle=orthogonalEdgeStyle;rounded=0;orthogonalLoop=1;jettySize=auto;html=1;endArrow=none;endFill=0;" parent="1" source="4MOQ0DoctpOwkA63N22g-7" target="4MOQ0DoctpOwkA63N22g-2" edge="1">
          <mxGeometry relative="1" as="geometry">
            <Array as="points">
              <mxPoint x="823" y="580" />
              <mxPoint x="945" y="580" />
            </Array>
          </mxGeometry>
        </mxCell>
        <mxCell id="4MOQ0DoctpOwkA63N22g-7" value="firstName" style="ellipse;whiteSpace=wrap;html=1;" parent="1" vertex="1">
          <mxGeometry x="780" y="600" width="85" height="30" as="geometry" />
        </mxCell>
        <mxCell id="4MOQ0DoctpOwkA63N22g-20" value="" style="edgeStyle=orthogonalEdgeStyle;rounded=0;orthogonalLoop=1;jettySize=auto;html=1;endArrow=none;endFill=0;" parent="1" source="4MOQ0DoctpOwkA63N22g-8" target="4MOQ0DoctpOwkA63N22g-2" edge="1">
          <mxGeometry relative="1" as="geometry">
            <Array as="points">
              <mxPoint x="920" y="580" />
              <mxPoint x="945" y="580" />
            </Array>
          </mxGeometry>
        </mxCell>
        <mxCell id="4MOQ0DoctpOwkA63N22g-8" value="lastName" style="ellipse;whiteSpace=wrap;html=1;" parent="1" vertex="1">
          <mxGeometry x="885" y="600" width="85" height="30" as="geometry" />
        </mxCell>
        <mxCell id="4MOQ0DoctpOwkA63N22g-21" style="edgeStyle=orthogonalEdgeStyle;rounded=0;orthogonalLoop=1;jettySize=auto;html=1;entryX=0.5;entryY=1;entryDx=0;entryDy=0;endArrow=none;endFill=0;" parent="1" source="4MOQ0DoctpOwkA63N22g-9" target="4MOQ0DoctpOwkA63N22g-2" edge="1">
          <mxGeometry relative="1" as="geometry">
            <Array as="points">
              <mxPoint x="1020" y="580" />
              <mxPoint x="945" y="580" />
            </Array>
          </mxGeometry>
        </mxCell>
        <mxCell id="4MOQ0DoctpOwkA63N22g-9" value="dateOfBirth" style="ellipse;whiteSpace=wrap;html=1;" parent="1" vertex="1">
          <mxGeometry x="990" y="610" width="85" height="30" as="geometry" />
        </mxCell>
        <mxCell id="4MOQ0DoctpOwkA63N22g-25" style="edgeStyle=orthogonalEdgeStyle;rounded=0;orthogonalLoop=1;jettySize=auto;html=1;endArrow=none;endFill=0;" parent="1" source="4MOQ0DoctpOwkA63N22g-10" target="4MOQ0DoctpOwkA63N22g-2" edge="1">
          <mxGeometry relative="1" as="geometry">
            <Array as="points">
              <mxPoint x="1143" y="580" />
              <mxPoint x="945" y="580" />
            </Array>
          </mxGeometry>
        </mxCell>
        <mxCell id="4MOQ0DoctpOwkA63N22g-10" value="&lt;u&gt;medicareID&lt;/u&gt;" style="ellipse;whiteSpace=wrap;html=1;" parent="1" vertex="1">
          <mxGeometry x="1100" y="600" width="85" height="30" as="geometry" />
        </mxCell>
        <mxCell id="4MOQ0DoctpOwkA63N22g-22" value="" style="edgeStyle=orthogonalEdgeStyle;rounded=0;orthogonalLoop=1;jettySize=auto;html=1;endArrow=none;endFill=0;" parent="1" source="4MOQ0DoctpOwkA63N22g-11" target="4MOQ0DoctpOwkA63N22g-2" edge="1">
          <mxGeometry relative="1" as="geometry">
            <Array as="points">
              <mxPoint x="873" y="580" />
              <mxPoint x="945" y="580" />
            </Array>
          </mxGeometry>
        </mxCell>
        <mxCell id="4MOQ0DoctpOwkA63N22g-11" value="medicareExpiry" style="ellipse;whiteSpace=wrap;html=1;" parent="1" vertex="1">
          <mxGeometry x="830" y="650" width="85" height="30" as="geometry" />
        </mxCell>
        <mxCell id="4MOQ0DoctpOwkA63N22g-23" style="edgeStyle=orthogonalEdgeStyle;rounded=0;orthogonalLoop=1;jettySize=auto;html=1;endArrow=none;endFill=0;" parent="1" source="4MOQ0DoctpOwkA63N22g-12" target="4MOQ0DoctpOwkA63N22g-2" edge="1">
          <mxGeometry relative="1" as="geometry">
            <Array as="points">
              <mxPoint x="980" y="580" />
              <mxPoint x="945" y="580" />
            </Array>
          </mxGeometry>
        </mxCell>
        <mxCell id="4MOQ0DoctpOwkA63N22g-12" value="phone" style="ellipse;whiteSpace=wrap;html=1;" parent="1" vertex="1">
          <mxGeometry x="935" y="650" width="85" height="30" as="geometry" />
        </mxCell>
        <mxCell id="4MOQ0DoctpOwkA63N22g-24" style="edgeStyle=orthogonalEdgeStyle;rounded=0;orthogonalLoop=1;jettySize=auto;html=1;endArrow=none;endFill=0;" parent="1" source="4MOQ0DoctpOwkA63N22g-13" target="4MOQ0DoctpOwkA63N22g-2" edge="1">
          <mxGeometry relative="1" as="geometry">
            <Array as="points">
              <mxPoint x="1080" y="580" />
              <mxPoint x="945" y="580" />
            </Array>
          </mxGeometry>
        </mxCell>
        <mxCell id="4MOQ0DoctpOwkA63N22g-13" value="address" style="ellipse;whiteSpace=wrap;html=1;" parent="1" vertex="1">
          <mxGeometry x="1060" y="650" width="85" height="30" as="geometry" />
        </mxCell>
        <mxCell id="4MOQ0DoctpOwkA63N22g-28" style="edgeStyle=orthogonalEdgeStyle;rounded=0;orthogonalLoop=1;jettySize=auto;html=1;endArrow=none;endFill=0;" parent="1" source="4MOQ0DoctpOwkA63N22g-16" target="4MOQ0DoctpOwkA63N22g-2" edge="1">
          <mxGeometry relative="1" as="geometry">
            <Array as="points">
              <mxPoint x="1210" y="580" />
              <mxPoint x="945" y="580" />
            </Array>
          </mxGeometry>
        </mxCell>
        <mxCell id="4MOQ0DoctpOwkA63N22g-16" value="postalCode" style="ellipse;whiteSpace=wrap;html=1;" parent="1" vertex="1">
          <mxGeometry x="1163.5" y="645" width="85" height="30" as="geometry" />
        </mxCell>
        <mxCell id="4MOQ0DoctpOwkA63N22g-30" style="edgeStyle=orthogonalEdgeStyle;rounded=0;orthogonalLoop=1;jettySize=auto;html=1;endArrow=none;endFill=0;" parent="1" source="4MOQ0DoctpOwkA63N22g-17" target="4MOQ0DoctpOwkA63N22g-2" edge="1">
          <mxGeometry relative="1" as="geometry">
            <Array as="points">
              <mxPoint x="760" y="580" />
              <mxPoint x="945" y="580" />
            </Array>
          </mxGeometry>
        </mxCell>
        <mxCell id="4MOQ0DoctpOwkA63N22g-17" value="email" style="ellipse;whiteSpace=wrap;html=1;" parent="1" vertex="1">
          <mxGeometry x="720" y="650" width="85" height="30" as="geometry" />
        </mxCell>
        <mxCell id="4MOQ0DoctpOwkA63N22g-29" style="edgeStyle=orthogonalEdgeStyle;rounded=0;orthogonalLoop=1;jettySize=auto;html=1;endArrow=none;endFill=0;" parent="1" source="4MOQ0DoctpOwkA63N22g-18" target="4MOQ0DoctpOwkA63N22g-2" edge="1">
          <mxGeometry relative="1" as="geometry">
            <Array as="points">
              <mxPoint x="703" y="580" />
              <mxPoint x="945" y="580" />
            </Array>
          </mxGeometry>
        </mxCell>
        <mxCell id="4MOQ0DoctpOwkA63N22g-18" value="citizenship" style="ellipse;whiteSpace=wrap;html=1;" parent="1" vertex="1">
          <mxGeometry x="660" y="600" width="85" height="30" as="geometry" />
        </mxCell>
        <mxCell id="4MOQ0DoctpOwkA63N22g-36" style="edgeStyle=orthogonalEdgeStyle;rounded=0;orthogonalLoop=1;jettySize=auto;html=1;endArrow=none;endFill=0;" parent="1" source="4MOQ0DoctpOwkA63N22g-35" target="4MOQ0DoctpOwkA63N22g-1" edge="1">
          <mxGeometry relative="1" as="geometry">
            <Array as="points">
              <mxPoint x="720" y="190" />
            </Array>
          </mxGeometry>
        </mxCell>
        <mxCell id="4MOQ0DoctpOwkA63N22g-35" value="infectionID" style="ellipse;whiteSpace=wrap;html=1;align=center;fontStyle=4;" parent="1" vertex="1">
          <mxGeometry x="540" y="170" width="100" height="40" as="geometry" />
        </mxCell>
        <mxCell id="4MOQ0DoctpOwkA63N22g-38" style="edgeStyle=orthogonalEdgeStyle;rounded=0;orthogonalLoop=1;jettySize=auto;html=1;exitX=1;exitY=0.5;exitDx=0;exitDy=0;entryX=0.5;entryY=1;entryDx=0;entryDy=0;endArrow=none;endFill=0;" parent="1" source="4MOQ0DoctpOwkA63N22g-37" target="4MOQ0DoctpOwkA63N22g-1" edge="1">
          <mxGeometry relative="1" as="geometry">
            <Array as="points">
              <mxPoint x="650" y="300" />
              <mxPoint x="715" y="300" />
            </Array>
          </mxGeometry>
        </mxCell>
        <mxCell id="4MOQ0DoctpOwkA63N22g-37" value="dateOfInfenction" style="ellipse;whiteSpace=wrap;html=1;align=center;" parent="1" vertex="1">
          <mxGeometry x="550" y="280" width="100" height="40" as="geometry" />
        </mxCell>
        <mxCell id="4MOQ0DoctpOwkA63N22g-41" style="edgeStyle=orthogonalEdgeStyle;rounded=0;orthogonalLoop=1;jettySize=auto;html=1;entryX=0.542;entryY=0.001;entryDx=0;entryDy=0;entryPerimeter=0;endArrow=none;endFill=0;" parent="1" target="4MOQ0DoctpOwkA63N22g-1" edge="1">
          <mxGeometry relative="1" as="geometry">
            <mxPoint x="768" y="190" as="sourcePoint" />
            <Array as="points">
              <mxPoint x="720" y="190" />
              <mxPoint x="720" y="229" />
              <mxPoint x="720" y="229" />
            </Array>
          </mxGeometry>
        </mxCell>
        <mxCell id="4MOQ0DoctpOwkA63N22g-40" value="typeOfInfection" style="ellipse;whiteSpace=wrap;html=1;align=center;" parent="1" vertex="1">
          <mxGeometry x="770" y="170" width="100" height="40" as="geometry" />
        </mxCell>
        <mxCell id="4MOQ0DoctpOwkA63N22g-42" value="Vaccinations" style="rounded=0;whiteSpace=wrap;html=1;" parent="1" vertex="1">
          <mxGeometry x="1138.5" y="230" width="110" height="40" as="geometry" />
        </mxCell>
        <mxCell id="4MOQ0DoctpOwkA63N22g-44" style="edgeStyle=orthogonalEdgeStyle;rounded=0;orthogonalLoop=1;jettySize=auto;html=1;endArrow=none;endFill=0;" parent="1" source="4MOQ0DoctpOwkA63N22g-43" target="4MOQ0DoctpOwkA63N22g-42" edge="1">
          <mxGeometry relative="1" as="geometry" />
        </mxCell>
        <mxCell id="4MOQ0DoctpOwkA63N22g-43" value="&lt;u&gt;vaxID&lt;/u&gt;" style="ellipse;whiteSpace=wrap;html=1;align=center;" parent="1" vertex="1">
          <mxGeometry x="986.5" y="230" width="100" height="40" as="geometry" />
        </mxCell>
        <mxCell id="4MOQ0DoctpOwkA63N22g-46" style="edgeStyle=orthogonalEdgeStyle;rounded=0;orthogonalLoop=1;jettySize=auto;html=1;endArrow=none;endFill=0;" parent="1" source="4MOQ0DoctpOwkA63N22g-45" target="4MOQ0DoctpOwkA63N22g-42" edge="1">
          <mxGeometry relative="1" as="geometry" />
        </mxCell>
        <mxCell id="4MOQ0DoctpOwkA63N22g-45" value="dateOfVax" style="ellipse;whiteSpace=wrap;html=1;align=center;" parent="1" vertex="1">
          <mxGeometry x="986.5" y="290" width="100" height="40" as="geometry" />
        </mxCell>
        <mxCell id="4MOQ0DoctpOwkA63N22g-48" style="edgeStyle=orthogonalEdgeStyle;rounded=0;orthogonalLoop=1;jettySize=auto;html=1;entryX=0.5;entryY=0;entryDx=0;entryDy=0;endArrow=none;endFill=0;" parent="1" source="4MOQ0DoctpOwkA63N22g-47" target="4MOQ0DoctpOwkA63N22g-42" edge="1">
          <mxGeometry relative="1" as="geometry" />
        </mxCell>
        <mxCell id="4MOQ0DoctpOwkA63N22g-47" value="vaxType" style="ellipse;whiteSpace=wrap;html=1;align=center;" parent="1" vertex="1">
          <mxGeometry x="986.5" y="160" width="100" height="40" as="geometry" />
        </mxCell>
        <mxCell id="4MOQ0DoctpOwkA63N22g-50" style="edgeStyle=orthogonalEdgeStyle;rounded=0;orthogonalLoop=1;jettySize=auto;html=1;endArrow=none;endFill=0;" parent="1" source="4MOQ0DoctpOwkA63N22g-49" edge="1">
          <mxGeometry relative="1" as="geometry">
            <mxPoint x="1188.5" y="180" as="targetPoint" />
          </mxGeometry>
        </mxCell>
        <mxCell id="4MOQ0DoctpOwkA63N22g-49" value="doseNumber" style="ellipse;whiteSpace=wrap;html=1;align=center;" parent="1" vertex="1">
          <mxGeometry x="1278.5" y="160" width="100" height="40" as="geometry" />
        </mxCell>
        <mxCell id="4MOQ0DoctpOwkA63N22g-52" value="Facility" style="rounded=0;whiteSpace=wrap;html=1;" parent="1" vertex="1">
          <mxGeometry x="2000" y="390" width="110" height="40" as="geometry" />
        </mxCell>
        <mxCell id="4MOQ0DoctpOwkA63N22g-55" style="edgeStyle=orthogonalEdgeStyle;rounded=0;orthogonalLoop=1;jettySize=auto;html=1;entryX=0.5;entryY=0;entryDx=0;entryDy=0;endArrow=none;endFill=0;" parent="1" source="4MOQ0DoctpOwkA63N22g-53" target="4MOQ0DoctpOwkA63N22g-52" edge="1">
          <mxGeometry relative="1" as="geometry">
            <Array as="points">
              <mxPoint x="2040" y="350" />
              <mxPoint x="2040" y="390" />
            </Array>
          </mxGeometry>
        </mxCell>
        <mxCell id="4MOQ0DoctpOwkA63N22g-53" value="facilityName" style="ellipse;whiteSpace=wrap;html=1;align=center;" parent="1" vertex="1">
          <mxGeometry x="1860" y="320" width="100" height="40" as="geometry" />
        </mxCell>
        <mxCell id="4MOQ0DoctpOwkA63N22g-57" style="edgeStyle=orthogonalEdgeStyle;rounded=0;orthogonalLoop=1;jettySize=auto;html=1;entryX=0;entryY=0.5;entryDx=0;entryDy=0;endArrow=none;endFill=0;" parent="1" source="4MOQ0DoctpOwkA63N22g-56" target="4MOQ0DoctpOwkA63N22g-52" edge="1">
          <mxGeometry relative="1" as="geometry">
            <Array as="points">
              <mxPoint x="2000" y="480" />
            </Array>
          </mxGeometry>
        </mxCell>
        <mxCell id="4MOQ0DoctpOwkA63N22g-56" value="address" style="ellipse;whiteSpace=wrap;html=1;align=center;" parent="1" vertex="1">
          <mxGeometry x="1860" y="460" width="100" height="40" as="geometry" />
        </mxCell>
        <mxCell id="4MOQ0DoctpOwkA63N22g-59" style="edgeStyle=orthogonalEdgeStyle;rounded=0;orthogonalLoop=1;jettySize=auto;html=1;entryX=0.5;entryY=1;entryDx=0;entryDy=0;endArrow=none;endFill=0;" parent="1" source="4MOQ0DoctpOwkA63N22g-58" target="4MOQ0DoctpOwkA63N22g-52" edge="1">
          <mxGeometry relative="1" as="geometry">
            <Array as="points">
              <mxPoint x="2010" y="540" />
              <mxPoint x="2010" y="430" />
            </Array>
          </mxGeometry>
        </mxCell>
        <mxCell id="4MOQ0DoctpOwkA63N22g-58" value="city" style="ellipse;whiteSpace=wrap;html=1;align=center;" parent="1" vertex="1">
          <mxGeometry x="1860" y="530" width="100" height="40" as="geometry" />
        </mxCell>
        <mxCell id="4MOQ0DoctpOwkA63N22g-61" style="edgeStyle=orthogonalEdgeStyle;rounded=0;orthogonalLoop=1;jettySize=auto;html=1;entryX=0.5;entryY=1;entryDx=0;entryDy=0;endArrow=none;endFill=0;" parent="1" source="4MOQ0DoctpOwkA63N22g-60" target="4MOQ0DoctpOwkA63N22g-52" edge="1">
          <mxGeometry relative="1" as="geometry">
            <mxPoint x="2050" y="350" as="targetPoint" />
            <Array as="points">
              <mxPoint x="2020" y="600" />
              <mxPoint x="2020" y="430" />
            </Array>
          </mxGeometry>
        </mxCell>
        <mxCell id="4MOQ0DoctpOwkA63N22g-60" value="province" style="ellipse;whiteSpace=wrap;html=1;align=center;" parent="1" vertex="1">
          <mxGeometry x="1860" y="590" width="100" height="40" as="geometry" />
        </mxCell>
        <mxCell id="4MOQ0DoctpOwkA63N22g-63" style="edgeStyle=orthogonalEdgeStyle;rounded=0;orthogonalLoop=1;jettySize=auto;html=1;endArrow=none;endFill=0;" parent="1" source="4MOQ0DoctpOwkA63N22g-62" target="4MOQ0DoctpOwkA63N22g-52" edge="1">
          <mxGeometry relative="1" as="geometry">
            <Array as="points">
              <mxPoint x="2080" y="600" />
            </Array>
          </mxGeometry>
        </mxCell>
        <mxCell id="4MOQ0DoctpOwkA63N22g-62" value="postalCode" style="ellipse;whiteSpace=wrap;html=1;align=center;" parent="1" vertex="1">
          <mxGeometry x="2130" y="580" width="100" height="40" as="geometry" />
        </mxCell>
        <mxCell id="4MOQ0DoctpOwkA63N22g-65" style="edgeStyle=orthogonalEdgeStyle;rounded=0;orthogonalLoop=1;jettySize=auto;html=1;entryX=0.5;entryY=1;entryDx=0;entryDy=0;endArrow=none;endFill=0;" parent="1" source="4MOQ0DoctpOwkA63N22g-64" target="4MOQ0DoctpOwkA63N22g-52" edge="1">
          <mxGeometry relative="1" as="geometry">
            <Array as="points">
              <mxPoint x="2030" y="660" />
              <mxPoint x="2030" y="430" />
            </Array>
          </mxGeometry>
        </mxCell>
        <mxCell id="4MOQ0DoctpOwkA63N22g-64" value="phone" style="ellipse;whiteSpace=wrap;html=1;align=center;" parent="1" vertex="1">
          <mxGeometry x="1860" y="650" width="100" height="40" as="geometry" />
        </mxCell>
        <mxCell id="4MOQ0DoctpOwkA63N22g-68" style="edgeStyle=orthogonalEdgeStyle;rounded=0;orthogonalLoop=1;jettySize=auto;html=1;entryX=0.5;entryY=0;entryDx=0;entryDy=0;endArrow=none;endFill=0;" parent="1" source="4MOQ0DoctpOwkA63N22g-66" target="4MOQ0DoctpOwkA63N22g-52" edge="1">
          <mxGeometry relative="1" as="geometry">
            <Array as="points">
              <mxPoint x="2080" y="350" />
              <mxPoint x="2080" y="390" />
            </Array>
          </mxGeometry>
        </mxCell>
        <mxCell id="4MOQ0DoctpOwkA63N22g-66" value="webAddress" style="ellipse;whiteSpace=wrap;html=1;align=center;" parent="1" vertex="1">
          <mxGeometry x="2130" y="320" width="100" height="40" as="geometry" />
        </mxCell>
        <mxCell id="4MOQ0DoctpOwkA63N22g-70" style="edgeStyle=orthogonalEdgeStyle;rounded=0;orthogonalLoop=1;jettySize=auto;html=1;endArrow=none;endFill=0;" parent="1" source="4MOQ0DoctpOwkA63N22g-69" target="4MOQ0DoctpOwkA63N22g-52" edge="1">
          <mxGeometry relative="1" as="geometry" />
        </mxCell>
        <mxCell id="4MOQ0DoctpOwkA63N22g-69" value="maxCapacity" style="ellipse;whiteSpace=wrap;html=1;align=center;" parent="1" vertex="1">
          <mxGeometry x="2130" y="390" width="100" height="40" as="geometry" />
        </mxCell>
        <mxCell id="4MOQ0DoctpOwkA63N22g-72" style="edgeStyle=orthogonalEdgeStyle;rounded=0;orthogonalLoop=1;jettySize=auto;html=1;entryX=0.5;entryY=1;entryDx=0;entryDy=0;endArrow=none;endFill=0;" parent="1" source="4MOQ0DoctpOwkA63N22g-71" target="4MOQ0DoctpOwkA63N22g-52" edge="1">
          <mxGeometry relative="1" as="geometry">
            <Array as="points">
              <mxPoint x="2100" y="480" />
              <mxPoint x="2100" y="430" />
            </Array>
          </mxGeometry>
        </mxCell>
        <mxCell id="4MOQ0DoctpOwkA63N22g-71" value="type" style="ellipse;whiteSpace=wrap;html=1;align=center;" parent="1" vertex="1">
          <mxGeometry x="2130" y="460" width="100" height="40" as="geometry" />
        </mxCell>
        <mxCell id="4MOQ0DoctpOwkA63N22g-174" style="edgeStyle=orthogonalEdgeStyle;rounded=0;orthogonalLoop=1;jettySize=auto;html=1;endArrow=none;endFill=0;" parent="1" source="4MOQ0DoctpOwkA63N22g-85" edge="1">
          <mxGeometry relative="1" as="geometry">
            <mxPoint x="2050" y="430" as="targetPoint" />
            <Array as="points">
              <mxPoint x="2090" y="540" />
              <mxPoint x="2090" y="430" />
            </Array>
          </mxGeometry>
        </mxCell>
        <mxCell id="4MOQ0DoctpOwkA63N22g-85" value="subType" style="ellipse;whiteSpace=wrap;html=1;align=center;" parent="1" vertex="1">
          <mxGeometry x="2130" y="520" width="100" height="40" as="geometry" />
        </mxCell>
        <mxCell id="4MOQ0DoctpOwkA63N22g-97" style="edgeStyle=orthogonalEdgeStyle;rounded=0;orthogonalLoop=1;jettySize=auto;html=1;exitX=0.5;exitY=1;exitDx=0;exitDy=0;" parent="1" edge="1">
          <mxGeometry relative="1" as="geometry">
            <mxPoint x="2280" y="699.5" as="sourcePoint" />
            <mxPoint x="2280" y="699.5" as="targetPoint" />
          </mxGeometry>
        </mxCell>
        <mxCell id="4MOQ0DoctpOwkA63N22g-184" style="edgeStyle=orthogonalEdgeStyle;rounded=0;orthogonalLoop=1;jettySize=auto;html=1;endArrow=none;endFill=0;entryX=0.617;entryY=0.9;entryDx=0;entryDy=0;entryPerimeter=0;" parent="1" source="4MOQ0DoctpOwkA63N22g-110" target="4MOQ0DoctpOwkA63N22g-145" edge="1">
          <mxGeometry relative="1" as="geometry">
            <mxPoint x="973" y="929" as="targetPoint" />
            <Array as="points">
              <mxPoint x="973" y="950" />
            </Array>
          </mxGeometry>
        </mxCell>
        <mxCell id="4MOQ0DoctpOwkA63N22g-110" value="currentLevel" style="ellipse;whiteSpace=wrap;html=1;align=center;" parent="1" vertex="1">
          <mxGeometry x="980" y="930" width="100" height="40" as="geometry" />
        </mxCell>
        <mxCell id="QNJjueLM1Z4ecFm4Trz6-5" style="edgeStyle=orthogonalEdgeStyle;rounded=0;orthogonalLoop=1;jettySize=auto;html=1;" parent="1" source="4MOQ0DoctpOwkA63N22g-112" edge="1">
          <mxGeometry relative="1" as="geometry">
            <mxPoint x="2060" y="430" as="targetPoint" />
          </mxGeometry>
        </mxCell>
        <mxCell id="4MOQ0DoctpOwkA63N22g-112" value="Employee" style="shape=rhombus;perimeter=rhombusPerimeter;whiteSpace=wrap;html=1;align=center;rotation=0;" parent="1" vertex="1">
          <mxGeometry x="900" y="1050" width="120" height="60" as="geometry" />
        </mxCell>
        <mxCell id="4MOQ0DoctpOwkA63N22g-183" style="edgeStyle=orthogonalEdgeStyle;rounded=0;orthogonalLoop=1;jettySize=auto;html=1;entryX=0.583;entryY=1;entryDx=0;entryDy=0;entryPerimeter=0;endArrow=none;endFill=0;" parent="1" source="4MOQ0DoctpOwkA63N22g-121" target="4MOQ0DoctpOwkA63N22g-112" edge="1">
          <mxGeometry relative="1" as="geometry">
            <Array as="points">
              <mxPoint x="970" y="1190" />
            </Array>
          </mxGeometry>
        </mxCell>
        <mxCell id="4MOQ0DoctpOwkA63N22g-121" value="occupation" style="ellipse;whiteSpace=wrap;html=1;align=center;" parent="1" vertex="1">
          <mxGeometry x="990" y="1170" width="100" height="40" as="geometry" />
        </mxCell>
        <mxCell id="4MOQ0DoctpOwkA63N22g-182" style="edgeStyle=orthogonalEdgeStyle;rounded=0;orthogonalLoop=1;jettySize=auto;html=1;entryX=1;entryY=1;entryDx=0;entryDy=0;endArrow=none;endFill=0;" parent="1" source="4MOQ0DoctpOwkA63N22g-123" target="4MOQ0DoctpOwkA63N22g-112" edge="1">
          <mxGeometry relative="1" as="geometry">
            <Array as="points">
              <mxPoint x="990" y="1130" />
            </Array>
          </mxGeometry>
        </mxCell>
        <mxCell id="4MOQ0DoctpOwkA63N22g-123" value="speciality" style="ellipse;whiteSpace=wrap;html=1;align=center;" parent="1" vertex="1">
          <mxGeometry x="1000" y="1110" width="100" height="40" as="geometry" />
        </mxCell>
        <mxCell id="QNJjueLM1Z4ecFm4Trz6-4" style="edgeStyle=orthogonalEdgeStyle;rounded=0;orthogonalLoop=1;jettySize=auto;html=1;" parent="1" source="4MOQ0DoctpOwkA63N22g-145" edge="1">
          <mxGeometry relative="1" as="geometry">
            <mxPoint x="2040" y="430" as="targetPoint" />
          </mxGeometry>
        </mxCell>
        <mxCell id="4MOQ0DoctpOwkA63N22g-145" value="Student" style="shape=rhombus;perimeter=rhombusPerimeter;whiteSpace=wrap;html=1;align=center;rotation=0;" parent="1" vertex="1">
          <mxGeometry x="900" y="870" width="120" height="60" as="geometry" />
        </mxCell>
        <mxCell id="4MOQ0DoctpOwkA63N22g-185" style="edgeStyle=orthogonalEdgeStyle;rounded=0;orthogonalLoop=1;jettySize=auto;html=1;exitX=1;exitY=0.5;exitDx=0;exitDy=0;entryX=0.367;entryY=0.9;entryDx=0;entryDy=0;entryPerimeter=0;endArrow=none;endFill=0;" parent="1" source="4MOQ0DoctpOwkA63N22g-148" target="4MOQ0DoctpOwkA63N22g-145" edge="1">
          <mxGeometry relative="1" as="geometry" />
        </mxCell>
        <mxCell id="4MOQ0DoctpOwkA63N22g-148" value="startDate" style="ellipse;whiteSpace=wrap;html=1;align=center;" parent="1" vertex="1">
          <mxGeometry x="807" y="930" width="100" height="40" as="geometry" />
        </mxCell>
        <mxCell id="4MOQ0DoctpOwkA63N22g-151" style="edgeStyle=orthogonalEdgeStyle;rounded=0;orthogonalLoop=1;jettySize=auto;html=1;entryX=0.5;entryY=1;entryDx=0;entryDy=0;endArrow=none;endFill=0;" parent="1" source="4MOQ0DoctpOwkA63N22g-150" target="4MOQ0DoctpOwkA63N22g-145" edge="1">
          <mxGeometry relative="1" as="geometry">
            <Array as="points">
              <mxPoint x="960" y="1010" />
            </Array>
          </mxGeometry>
        </mxCell>
        <mxCell id="4MOQ0DoctpOwkA63N22g-150" value="endDate" style="ellipse;whiteSpace=wrap;html=1;align=center;" parent="1" vertex="1">
          <mxGeometry x="807" y="990" width="100" height="40" as="geometry" />
        </mxCell>
        <mxCell id="4MOQ0DoctpOwkA63N22g-153" style="edgeStyle=orthogonalEdgeStyle;rounded=0;orthogonalLoop=1;jettySize=auto;html=1;entryX=0.345;entryY=0.911;entryDx=0;entryDy=0;entryPerimeter=0;endArrow=none;endFill=0;" parent="1" source="4MOQ0DoctpOwkA63N22g-152" target="4MOQ0DoctpOwkA63N22g-112" edge="1">
          <mxGeometry relative="1" as="geometry">
            <Array as="points">
              <mxPoint x="941" y="1130" />
            </Array>
          </mxGeometry>
        </mxCell>
        <mxCell id="4MOQ0DoctpOwkA63N22g-152" value="startDate" style="ellipse;whiteSpace=wrap;html=1;align=center;" parent="1" vertex="1">
          <mxGeometry x="807" y="1110" width="100" height="40" as="geometry" />
        </mxCell>
        <mxCell id="4MOQ0DoctpOwkA63N22g-155" style="edgeStyle=orthogonalEdgeStyle;rounded=0;orthogonalLoop=1;jettySize=auto;html=1;entryX=0.5;entryY=1;entryDx=0;entryDy=0;endArrow=none;endFill=0;" parent="1" source="4MOQ0DoctpOwkA63N22g-154" target="4MOQ0DoctpOwkA63N22g-112" edge="1">
          <mxGeometry relative="1" as="geometry">
            <Array as="points">
              <mxPoint x="960" y="1190" />
            </Array>
          </mxGeometry>
        </mxCell>
        <mxCell id="4MOQ0DoctpOwkA63N22g-154" value="endDate" style="ellipse;whiteSpace=wrap;html=1;align=center;" parent="1" vertex="1">
          <mxGeometry x="810" y="1170" width="100" height="40" as="geometry" />
        </mxCell>
        <mxCell id="4MOQ0DoctpOwkA63N22g-158" style="edgeStyle=orthogonalEdgeStyle;rounded=0;orthogonalLoop=1;jettySize=auto;html=1;exitX=0;exitY=0.5;exitDx=0;exitDy=0;entryX=0.75;entryY=1;entryDx=0;entryDy=0;endArrow=none;endFill=0;" parent="1" source="4MOQ0DoctpOwkA63N22g-156" target="4MOQ0DoctpOwkA63N22g-1" edge="1">
          <mxGeometry relative="1" as="geometry">
            <Array as="points">
              <mxPoint x="743" y="400" />
            </Array>
          </mxGeometry>
        </mxCell>
        <mxCell id="4MOQ0DoctpOwkA63N22g-156" value="Infected" style="shape=rhombus;perimeter=rhombusPerimeter;whiteSpace=wrap;html=1;align=center;rotation=0;" parent="1" vertex="1">
          <mxGeometry x="760" y="370" width="120" height="60" as="geometry" />
        </mxCell>
        <mxCell id="4MOQ0DoctpOwkA63N22g-160" style="edgeStyle=orthogonalEdgeStyle;rounded=0;orthogonalLoop=1;jettySize=auto;html=1;exitX=1;exitY=0.5;exitDx=0;exitDy=0;entryX=0.75;entryY=1;entryDx=0;entryDy=0;endArrow=none;endFill=0;" parent="1" source="4MOQ0DoctpOwkA63N22g-159" target="4MOQ0DoctpOwkA63N22g-42" edge="1">
          <mxGeometry relative="1" as="geometry" />
        </mxCell>
        <mxCell id="4MOQ0DoctpOwkA63N22g-161" style="edgeStyle=orthogonalEdgeStyle;rounded=0;orthogonalLoop=1;jettySize=auto;html=1;entryX=0.75;entryY=0;entryDx=0;entryDy=0;" parent="1" source="4MOQ0DoctpOwkA63N22g-159" target="4MOQ0DoctpOwkA63N22g-2" edge="1">
          <mxGeometry relative="1" as="geometry" />
        </mxCell>
        <mxCell id="4MOQ0DoctpOwkA63N22g-159" value="Vaccinated" style="shape=rhombus;perimeter=rhombusPerimeter;whiteSpace=wrap;html=1;align=center;rotation=0;" parent="1" vertex="1">
          <mxGeometry x="1025" y="370" width="120" height="60" as="geometry" />
        </mxCell>
        <mxCell id="4MOQ0DoctpOwkA63N22g-173" style="edgeStyle=orthogonalEdgeStyle;rounded=0;orthogonalLoop=1;jettySize=auto;html=1;endArrow=none;endFill=0;" parent="1" source="4MOQ0DoctpOwkA63N22g-171" edge="1">
          <mxGeometry relative="1" as="geometry">
            <mxPoint x="2070" y="430" as="targetPoint" />
            <Array as="points">
              <mxPoint x="2070" y="660" />
            </Array>
          </mxGeometry>
        </mxCell>
        <mxCell id="4MOQ0DoctpOwkA63N22g-171" value="presidentID" style="ellipse;whiteSpace=wrap;html=1;align=center;" parent="1" vertex="1">
          <mxGeometry x="2130" y="640" width="100" height="40" as="geometry" />
        </mxCell>
        <mxCell id="4MOQ0DoctpOwkA63N22g-191" style="edgeStyle=orthogonalEdgeStyle;rounded=0;orthogonalLoop=1;jettySize=auto;html=1;endArrow=none;endFill=0;" parent="1" source="4MOQ0DoctpOwkA63N22g-190" target="4MOQ0DoctpOwkA63N22g-52" edge="1">
          <mxGeometry relative="1" as="geometry" />
        </mxCell>
        <mxCell id="4MOQ0DoctpOwkA63N22g-190" value="ministryID" style="ellipse;whiteSpace=wrap;html=1;align=center;" parent="1" vertex="1">
          <mxGeometry x="1860" y="390" width="100" height="40" as="geometry" />
        </mxCell>
        <mxCell id="QNJjueLM1Z4ecFm4Trz6-6" style="edgeStyle=orthogonalEdgeStyle;rounded=0;orthogonalLoop=1;jettySize=auto;html=1;entryX=0.5;entryY=0;entryDx=0;entryDy=0;endArrow=none;endFill=0;" parent="1" source="QNJjueLM1Z4ecFm4Trz6-3" target="4MOQ0DoctpOwkA63N22g-52" edge="1">
          <mxGeometry relative="1" as="geometry">
            <Array as="points">
              <mxPoint x="1520" y="240" />
              <mxPoint x="2060" y="240" />
              <mxPoint x="2060" y="390" />
            </Array>
          </mxGeometry>
        </mxCell>
        <mxCell id="QNJjueLM1Z4ecFm4Trz6-7" style="edgeStyle=orthogonalEdgeStyle;rounded=0;orthogonalLoop=1;jettySize=auto;html=1;entryX=0.878;entryY=0;entryDx=0;entryDy=0;entryPerimeter=0;endArrow=none;endFill=0;" parent="1" source="QNJjueLM1Z4ecFm4Trz6-3" target="4MOQ0DoctpOwkA63N22g-2" edge="1">
          <mxGeometry relative="1" as="geometry">
            <Array as="points">
              <mxPoint x="1520" y="470" />
              <mxPoint x="986" y="470" />
            </Array>
          </mxGeometry>
        </mxCell>
        <mxCell id="QNJjueLM1Z4ecFm4Trz6-3" value="Schedule" style="shape=rhombus;perimeter=rhombusPerimeter;whiteSpace=wrap;html=1;align=center;rotation=0;" parent="1" vertex="1">
          <mxGeometry x="1460" y="360" width="120" height="60" as="geometry" />
        </mxCell>
        <mxCell id="QNJjueLM1Z4ecFm4Trz6-10" style="edgeStyle=orthogonalEdgeStyle;rounded=0;orthogonalLoop=1;jettySize=auto;html=1;entryX=0;entryY=0.5;entryDx=0;entryDy=0;endArrow=none;endFill=0;" parent="1" source="QNJjueLM1Z4ecFm4Trz6-9" target="QNJjueLM1Z4ecFm4Trz6-3" edge="1">
          <mxGeometry relative="1" as="geometry" />
        </mxCell>
        <mxCell id="QNJjueLM1Z4ecFm4Trz6-9" value="workDate" style="ellipse;whiteSpace=wrap;html=1;align=center;" parent="1" vertex="1">
          <mxGeometry x="1330" y="370" width="100" height="40" as="geometry" />
        </mxCell>
        <mxCell id="QNJjueLM1Z4ecFm4Trz6-17" style="edgeStyle=orthogonalEdgeStyle;rounded=0;orthogonalLoop=1;jettySize=auto;html=1;exitX=0;exitY=0.5;exitDx=0;exitDy=0;entryX=1;entryY=0.5;entryDx=0;entryDy=0;endArrow=none;endFill=0;" parent="1" source="QNJjueLM1Z4ecFm4Trz6-11" target="QNJjueLM1Z4ecFm4Trz6-3" edge="1">
          <mxGeometry relative="1" as="geometry" />
        </mxCell>
        <mxCell id="QNJjueLM1Z4ecFm4Trz6-11" value="startTime" style="ellipse;whiteSpace=wrap;html=1;align=center;" parent="1" vertex="1">
          <mxGeometry x="1610" y="370" width="100" height="40" as="geometry" />
        </mxCell>
        <mxCell id="QNJjueLM1Z4ecFm4Trz6-15" style="edgeStyle=orthogonalEdgeStyle;rounded=0;orthogonalLoop=1;jettySize=auto;html=1;entryX=0.871;entryY=0.728;entryDx=0;entryDy=0;entryPerimeter=0;endArrow=none;endFill=0;" parent="1" source="QNJjueLM1Z4ecFm4Trz6-14" target="QNJjueLM1Z4ecFm4Trz6-3" edge="1">
          <mxGeometry relative="1" as="geometry">
            <Array as="points">
              <mxPoint x="1565" y="440" />
              <mxPoint x="1565" y="404" />
            </Array>
          </mxGeometry>
        </mxCell>
        <mxCell id="QNJjueLM1Z4ecFm4Trz6-14" value="endTime" style="ellipse;whiteSpace=wrap;html=1;align=center;" parent="1" vertex="1">
          <mxGeometry x="1610" y="420" width="100" height="40" as="geometry" />
        </mxCell>
        <mxCell id="QNJjueLM1Z4ecFm4Trz6-25" style="edgeStyle=orthogonalEdgeStyle;rounded=0;orthogonalLoop=1;jettySize=auto;html=1;entryX=0.051;entryY=0.478;entryDx=0;entryDy=0;entryPerimeter=0;endArrow=none;endFill=0;" parent="1" source="QNJjueLM1Z4ecFm4Trz6-18" target="QNJjueLM1Z4ecFm4Trz6-24" edge="1">
          <mxGeometry relative="1" as="geometry" />
        </mxCell>
        <mxCell id="QNJjueLM1Z4ecFm4Trz6-18" value="Email" style="rounded=0;whiteSpace=wrap;html=1;" parent="1" vertex="1">
          <mxGeometry x="1460" y="530" width="115" height="40" as="geometry" />
        </mxCell>
        <mxCell id="QNJjueLM1Z4ecFm4Trz6-20" style="edgeStyle=orthogonalEdgeStyle;rounded=0;orthogonalLoop=1;jettySize=auto;html=1;entryX=0.3;entryY=1.071;entryDx=0;entryDy=0;entryPerimeter=0;endArrow=none;endFill=0;" parent="1" source="QNJjueLM1Z4ecFm4Trz6-19" target="QNJjueLM1Z4ecFm4Trz6-18" edge="1">
          <mxGeometry relative="1" as="geometry">
            <Array as="points">
              <mxPoint x="1495" y="630" />
              <mxPoint x="1495" y="590" />
            </Array>
          </mxGeometry>
        </mxCell>
        <mxCell id="QNJjueLM1Z4ecFm4Trz6-19" value="subject" style="ellipse;whiteSpace=wrap;html=1;align=center;" parent="1" vertex="1">
          <mxGeometry x="1378.5" y="610" width="100" height="40" as="geometry" />
        </mxCell>
        <mxCell id="QNJjueLM1Z4ecFm4Trz6-23" style="edgeStyle=orthogonalEdgeStyle;rounded=0;orthogonalLoop=1;jettySize=auto;html=1;exitX=0;exitY=0.5;exitDx=0;exitDy=0;entryX=0.75;entryY=1;entryDx=0;entryDy=0;endArrow=none;endFill=0;" parent="1" source="QNJjueLM1Z4ecFm4Trz6-21" target="QNJjueLM1Z4ecFm4Trz6-18" edge="1">
          <mxGeometry relative="1" as="geometry">
            <Array as="points">
              <mxPoint x="1546" y="630" />
            </Array>
          </mxGeometry>
        </mxCell>
        <mxCell id="QNJjueLM1Z4ecFm4Trz6-21" value="body" style="ellipse;whiteSpace=wrap;html=1;align=center;" parent="1" vertex="1">
          <mxGeometry x="1560" y="610" width="100" height="40" as="geometry" />
        </mxCell>
        <mxCell id="QNJjueLM1Z4ecFm4Trz6-26" style="edgeStyle=orthogonalEdgeStyle;rounded=0;orthogonalLoop=1;jettySize=auto;html=1;entryX=0.25;entryY=0;entryDx=0;entryDy=0;" parent="1" source="QNJjueLM1Z4ecFm4Trz6-24" target="4MOQ0DoctpOwkA63N22g-52" edge="1">
          <mxGeometry relative="1" as="geometry">
            <Array as="points">
              <mxPoint x="1830" y="550" />
              <mxPoint x="1830" y="370" />
              <mxPoint x="2028" y="370" />
            </Array>
          </mxGeometry>
        </mxCell>
        <mxCell id="QNJjueLM1Z4ecFm4Trz6-27" value="" style="edgeStyle=orthogonalEdgeStyle;rounded=0;orthogonalLoop=1;jettySize=auto;html=1;endArrow=none;endFill=0;" parent="1" source="QNJjueLM1Z4ecFm4Trz6-24" target="QNJjueLM1Z4ecFm4Trz6-18" edge="1">
          <mxGeometry relative="1" as="geometry" />
        </mxCell>
        <mxCell id="QNJjueLM1Z4ecFm4Trz6-31" style="edgeStyle=orthogonalEdgeStyle;rounded=0;orthogonalLoop=1;jettySize=auto;html=1;entryX=1;entryY=0;entryDx=0;entryDy=0;" parent="1" source="QNJjueLM1Z4ecFm4Trz6-24" target="4MOQ0DoctpOwkA63N22g-2" edge="1">
          <mxGeometry relative="1" as="geometry">
            <Array as="points">
              <mxPoint x="1740" y="500" />
              <mxPoint x="1000" y="500" />
            </Array>
          </mxGeometry>
        </mxCell>
        <mxCell id="QNJjueLM1Z4ecFm4Trz6-24" value="EmailLog" style="shape=rhombus;perimeter=rhombusPerimeter;whiteSpace=wrap;html=1;align=center;rotation=0;" parent="1" vertex="1">
          <mxGeometry x="1680" y="520" width="120" height="60" as="geometry" />
        </mxCell>
        <mxCell id="QNJjueLM1Z4ecFm4Trz6-30" style="edgeStyle=orthogonalEdgeStyle;rounded=0;orthogonalLoop=1;jettySize=auto;html=1;entryX=0;entryY=1;entryDx=0;entryDy=0;endArrow=none;endFill=0;" parent="1" source="QNJjueLM1Z4ecFm4Trz6-29" target="QNJjueLM1Z4ecFm4Trz6-24" edge="1">
          <mxGeometry relative="1" as="geometry">
            <Array as="points">
              <mxPoint x="1710" y="670" />
              <mxPoint x="1710" y="670" />
            </Array>
          </mxGeometry>
        </mxCell>
        <mxCell id="QNJjueLM1Z4ecFm4Trz6-29" value="emailDate" style="ellipse;whiteSpace=wrap;html=1;align=center;" parent="1" vertex="1">
          <mxGeometry x="1620" y="700" width="100" height="40" as="geometry" />
        </mxCell>
        <mxCell id="QNJjueLM1Z4ecFm4Trz6-33" style="edgeStyle=orthogonalEdgeStyle;rounded=0;orthogonalLoop=1;jettySize=auto;html=1;entryX=0.5;entryY=1;entryDx=0;entryDy=0;endArrow=none;endFill=0;" parent="1" source="QNJjueLM1Z4ecFm4Trz6-32" target="QNJjueLM1Z4ecFm4Trz6-18" edge="1">
          <mxGeometry relative="1" as="geometry" />
        </mxCell>
        <mxCell id="QNJjueLM1Z4ecFm4Trz6-32" value="&lt;u&gt;emailID&lt;/u&gt;" style="ellipse;whiteSpace=wrap;html=1;align=center;" parent="1" vertex="1">
          <mxGeometry x="1467.5" y="660" width="100" height="40" as="geometry" />
        </mxCell>
        <mxCell id="QNJjueLM1Z4ecFm4Trz6-35" style="edgeStyle=orthogonalEdgeStyle;rounded=0;orthogonalLoop=1;jettySize=auto;html=1;exitX=0;exitY=0;exitDx=0;exitDy=0;endArrow=none;endFill=0;" parent="1" source="QNJjueLM1Z4ecFm4Trz6-34" edge="1">
          <mxGeometry relative="1" as="geometry">
            <mxPoint x="1750" y="574" as="targetPoint" />
            <Array as="points">
              <mxPoint x="1750" y="706" />
              <mxPoint x="1750" y="574" />
            </Array>
          </mxGeometry>
        </mxCell>
        <mxCell id="QNJjueLM1Z4ecFm4Trz6-34" value="bodySummary" style="ellipse;whiteSpace=wrap;html=1;align=center;" parent="1" vertex="1">
          <mxGeometry x="1740" y="700" width="100" height="40" as="geometry" />
        </mxCell>
        <mxCell id="R8nXgFLNdIUcann07e6y-2" style="edgeStyle=orthogonalEdgeStyle;rounded=0;orthogonalLoop=1;jettySize=auto;html=1;endArrow=none;endFill=0;" parent="1" source="R8nXgFLNdIUcann07e6y-1" edge="1">
          <mxGeometry relative="1" as="geometry">
            <mxPoint x="2050" y="390" as="targetPoint" />
          </mxGeometry>
        </mxCell>
        <mxCell id="R8nXgFLNdIUcann07e6y-1" value="&lt;u&gt;facilityID&lt;/u&gt;" style="ellipse;whiteSpace=wrap;html=1;align=center;" parent="1" vertex="1">
          <mxGeometry x="1860" y="260" width="100" height="40" as="geometry" />
        </mxCell>
        <mxCell id="R8nXgFLNdIUcann07e6y-12" style="edgeStyle=orthogonalEdgeStyle;rounded=0;orthogonalLoop=1;jettySize=auto;html=1;entryX=0.191;entryY=-0.075;entryDx=0;entryDy=0;entryPerimeter=0;endArrow=none;endFill=0;startArrow=classic;startFill=1;" parent="1" source="R8nXgFLNdIUcann07e6y-4" target="4MOQ0DoctpOwkA63N22g-2" edge="1">
          <mxGeometry relative="1" as="geometry" />
        </mxCell>
        <mxCell id="R8nXgFLNdIUcann07e6y-4" value="AddressDetails" style="whiteSpace=wrap;html=1;align=center;" parent="1" vertex="1">
          <mxGeometry x="410" y="430" width="100" height="40" as="geometry" />
        </mxCell>
        <mxCell id="R8nXgFLNdIUcann07e6y-6" style="edgeStyle=orthogonalEdgeStyle;rounded=0;orthogonalLoop=1;jettySize=auto;html=1;entryX=0.25;entryY=0;entryDx=0;entryDy=0;endArrow=none;endFill=0;" parent="1" source="R8nXgFLNdIUcann07e6y-5" target="R8nXgFLNdIUcann07e6y-4" edge="1">
          <mxGeometry relative="1" as="geometry" />
        </mxCell>
        <mxCell id="R8nXgFLNdIUcann07e6y-5" value="&lt;u&gt;postalCode&lt;/u&gt;" style="ellipse;whiteSpace=wrap;html=1;align=center;" parent="1" vertex="1">
          <mxGeometry x="260" y="360" width="100" height="40" as="geometry" />
        </mxCell>
        <mxCell id="R8nXgFLNdIUcann07e6y-8" style="edgeStyle=orthogonalEdgeStyle;rounded=0;orthogonalLoop=1;jettySize=auto;html=1;entryX=0;entryY=0.75;entryDx=0;entryDy=0;endArrow=none;endFill=0;" parent="1" source="R8nXgFLNdIUcann07e6y-7" target="R8nXgFLNdIUcann07e6y-4" edge="1">
          <mxGeometry relative="1" as="geometry">
            <Array as="points">
              <mxPoint x="290" y="450" />
              <mxPoint x="290" y="450" />
            </Array>
          </mxGeometry>
        </mxCell>
        <mxCell id="R8nXgFLNdIUcann07e6y-7" value="province" style="ellipse;whiteSpace=wrap;html=1;align=center;" parent="1" vertex="1">
          <mxGeometry x="260" y="430" width="100" height="40" as="geometry" />
        </mxCell>
        <mxCell id="R8nXgFLNdIUcann07e6y-11" style="edgeStyle=orthogonalEdgeStyle;rounded=0;orthogonalLoop=1;jettySize=auto;html=1;entryX=0.25;entryY=1;entryDx=0;entryDy=0;endArrow=none;endFill=0;" parent="1" source="R8nXgFLNdIUcann07e6y-10" target="R8nXgFLNdIUcann07e6y-4" edge="1">
          <mxGeometry relative="1" as="geometry" />
        </mxCell>
        <mxCell id="R8nXgFLNdIUcann07e6y-10" value="city" style="ellipse;whiteSpace=wrap;html=1;align=center;" parent="1" vertex="1">
          <mxGeometry x="260" y="490" width="100" height="40" as="geometry" />
        </mxCell>
      </root>
    </mxGraphModel>
  </diagram>
</mxfile>
